<?xml version="1.0" standalone="no"?>
<!DOCTYPE svg PUBLIC "-//W3C//DTD SVG 20010904//EN"
 "http://www.w3.org/TR/2001/REC-SVG-20010904/DTD/svg10.dtd">
<svg version="1.0" xmlns="http://www.w3.org/2000/svg"
 width="600.000000pt" height="315.000000pt" viewBox="0 0 600.000000 315.000000"
 preserveAspectRatio="xMidYMid meet">

<g transform="translate(0.000000,315.000000) scale(0.100000,-0.100000)"
fill="#000000" stroke="none">
<path d="M1665 3088 c-23 -14 -191 -17 -247 -5 l-38 8 0 -51 c0 -49 2 -52 35
-66 47 -19 183 -19 235 2 40 16 40 16 40 70 0 30 -1 54 -2 54 -2 0 -12 -6 -23
-12z"/>
<path d="M1287 2979 c-29 -17 -158 -23 -217 -10 -63 14 -72 7 -68 -54 3 -36 7
-41 38 -52 52 -18 182 -16 230 3 40 16 40 16 40 70 0 30 -1 54 -2 54 -2 0 -11
-5 -21 -11z"/>
<path d="M1680 2914 c0 -50 2 -55 33 -71 43 -23 187 -23 240 0 36 16 37 17 37
70 l0 55 -37 -14 c-21 -7 -74 -13 -118 -13 -44 0 -97 6 -117 13 l-38 14 0 -54z"/>
<path d="M880 2864 c-55 -15 -140 -17 -199 -3 -24 5 -46 8 -48 5 -3 -3 -8 -25
-10 -49 -5 -44 -5 -44 36 -60 54 -22 177 -22 231 -1 40 16 40 16 40 70 0 30
-1 53 -2 53 -2 -1 -23 -7 -48 -15z"/>
<path d="M1320 2804 c0 -50 2 -55 32 -70 48 -25 181 -24 233 1 38 19 40 22 43
71 l3 52 -38 -14 c-49 -17 -187 -17 -235 0 l-38 14 0 -54z"/>
<path d="M250 2715 c0 -55 1 -56 37 -72 45 -18 191 -14 236 7 24 12 27 18 27
66 l0 54 -27 -12 c-38 -15 -222 -15 -250 0 -23 12 -23 12 -23 -43z"/>
<path d="M942 2688 c3 -47 6 -54 33 -68 44 -22 200 -20 243 3 30 16 32 21 32
68 0 48 -1 50 -22 42 -29 -10 -224 -11 -261 0 l-28 8 3 -53z"/>
<path d="M60 2400 c0 -205 3 -269 13 -273 6 -3 140 -57 297 -121 157 -64 288
-116 292 -116 5 0 8 119 8 264 l0 263 -192 78 c-106 43 -244 100 -305 126
l-113 47 0 -268z"/>
<path d="M562 2573 l3 -57 45 -14 c53 -16 182 -11 222 8 23 11 27 19 30 66 2
45 0 53 -12 48 -59 -23 -208 -25 -268 -3 -23 9 -23 8 -20 -48z"/>
<path d="M2265 2613 c-29 -8 -45 -23 -45 -44 0 -10 -7 -22 -16 -27 -14 -8 -17
-25 -15 -95 l2 -86 -220 -70 c-122 -39 -319 -102 -438 -140 -120 -38 -311 -99
-425 -136 l-208 -66 0 -172 0 -173 303 -122 c166 -67 308 -122 315 -122 8 0
248 75 535 166 287 92 623 199 747 238 l225 72 0 254 0 254 -97 40 c-72 29
-98 45 -98 58 0 24 -32 39 -98 45 -75 7 -202 60 -202 83 0 35 -29 45 -139 47
-58 1 -115 -1 -126 -4z"/>
<path d="M3120 2025 l0 -317 143 5 c78 2 159 11 180 18 56 19 122 82 154 147
24 49 28 68 27 147 0 76 -4 99 -26 145 -30 64 -75 113 -132 143 -35 18 -62 22
-193 25 l-153 4 0 -317z m301 192 c19 -12 45 -43 59 -67 21 -38 25 -58 25
-125 0 -69 -4 -86 -27 -125 -38 -65 -87 -90 -177 -90 l-71 0 0 215 0 215 79 0
c65 0 84 -4 112 -23z"/>
<path d="M4640 2285 l0 -55 55 0 55 0 0 55 0 55 -55 0 -55 0 0 -55z"/>
<path d="M5202 2245 c-20 -9 -38 -26 -44 -43 -11 -28 -12 -28 -97 -28 -95 0
-133 -13 -170 -60 -32 -41 -29 -113 7 -150 l27 -29 -32 -31 c-38 -37 -43 -79
-16 -120 16 -25 16 -27 -4 -43 -75 -59 -38 -166 65 -188 20 -4 75 -8 122 -8
152 1 230 50 230 145 0 37 -6 55 -26 79 -33 39 -77 51 -195 51 -83 0 -98 3
-114 20 -14 16 -16 25 -8 42 9 21 17 23 99 23 62 1 98 6 119 17 81 44 105 116
60 183 -33 48 -25 69 29 73 35 3 36 5 36 43 0 36 -2 39 -27 39 -16 -1 -43 -7
-61 -15z m-84 -151 c16 -11 22 -25 22 -54 0 -47 -27 -70 -83 -70 -43 0 -87 35
-87 70 0 12 11 32 25 45 29 29 88 34 123 9z m65 -392 c24 -22 21 -47 -9 -71
-36 -28 -153 -30 -204 -2 -40 21 -60 62 -42 84 17 20 230 11 255 -11z"/>
<path d="M3846 2165 c-89 -31 -138 -114 -138 -230 1 -121 51 -198 147 -224 78
-21 146 -7 201 41 31 28 70 86 62 93 -2 1 -22 5 -45 8 -39 5 -45 3 -60 -23
-51 -88 -183 -56 -199 48 l-7 42 162 0 161 0 0 28 c0 16 -7 53 -16 82 -35 119
-151 177 -268 135z m130 -83 c25 -19 44 -53 44 -76 0 -14 -16 -16 -106 -16
l-106 0 6 28 c4 15 20 39 37 55 35 32 92 36 125 9z"/>
<path d="M4287 2166 c-20 -8 -44 -20 -53 -27 -43 -35 -57 -116 -29 -169 19
-37 56 -56 145 -75 90 -19 110 -30 110 -60 0 -34 -36 -55 -93 -55 -40 0 -54 5
-77 29 -28 27 -32 28 -75 19 -25 -5 -45 -14 -45 -18 0 -5 14 -25 31 -45 39
-44 119 -70 191 -62 71 9 134 40 152 76 23 44 21 112 -5 145 -25 32 -48 42
-144 62 -80 17 -115 36 -115 64 0 50 112 70 153 27 19 -21 27 -22 65 -15 23 5
42 14 42 20 0 5 -15 25 -33 43 -52 52 -141 69 -220 41z"/>
<path d="M5542 2163 c-18 -8 -44 -34 -57 -57 l-25 -41 0 53 0 52 -50 0 -50 0
0 -230 0 -230 54 0 55 0 3 161 3 161 33 29 c40 36 80 38 110 6 21 -22 22 -33
22 -190 l0 -167 50 0 50 0 0 185 c0 215 -6 235 -73 266 -51 23 -82 23 -125 2z"/>
<path d="M4640 1940 l0 -230 55 0 55 0 0 230 0 230 -55 0 -55 0 0 -230z"/>
<path d="M2650 1326 l0 -316 55 0 55 0 0 125 0 125 93 0 c114 0 158 12 206 56
93 83 75 239 -34 297 -35 19 -60 22 -207 25 l-168 4 0 -316z m309 199 c32 -16
41 -33 41 -75 0 -70 -34 -90 -155 -90 l-85 0 0 90 0 90 85 0 c56 0 96 -5 114
-15z"/>
<path d="M3763 1593 c-29 -4 -33 -8 -33 -32 0 -16 -3 -43 -6 -60 -6 -26 -11
-31 -35 -31 -27 0 -29 -3 -29 -40 0 -38 2 -40 30 -40 l30 0 0 -159 c0 -144 2
-161 20 -184 27 -34 80 -51 136 -42 42 6 44 8 44 41 0 32 -2 34 -33 34 -66 0
-72 12 -75 169 l-4 141 51 0 51 0 0 40 0 40 -50 0 -50 0 0 65 c0 36 -3 64 -7
63 -5 0 -23 -3 -40 -5z"/>
<path d="M4073 1593 c-29 -4 -33 -8 -33 -32 0 -16 -3 -43 -6 -60 -6 -26 -11
-31 -35 -31 -27 0 -29 -3 -29 -40 0 -38 2 -40 30 -40 l30 0 0 -159 c0 -144 2
-161 20 -184 27 -34 80 -51 136 -42 42 6 44 8 44 41 0 32 -2 34 -33 34 -66 0
-72 12 -75 169 l-4 141 51 0 51 0 0 40 0 40 -50 0 -50 0 0 65 c0 36 -3 64 -7
63 -5 0 -23 -3 -40 -5z"/>
<path d="M620 1524 c0 -45 3 -55 23 -66 33 -18 184 -22 232 -6 39 13 40 14 43
67 3 48 1 53 -15 46 -39 -16 -197 -17 -240 -2 l-43 15 0 -54z"/>
<path d="M3306 1469 c-51 -12 -100 -50 -116 -89 -7 -17 -11 -32 -9 -34 2 -2
23 -6 47 -10 33 -5 42 -3 42 8 0 29 50 56 105 56 62 0 92 -20 101 -66 l6 -31
-81 -6 c-107 -8 -156 -24 -197 -63 -30 -28 -34 -37 -34 -85 0 -72 25 -111 84
-134 72 -27 130 -14 184 41 l42 44 0 -29 c0 -53 8 -61 60 -61 l47 0 -8 43 c-4
23 -8 106 -9 185 0 160 -9 190 -61 217 -38 20 -150 28 -203 14z m174 -246 c0
-42 -23 -94 -51 -117 -60 -51 -159 -24 -159 43 0 52 64 88 163 90 38 1 47 -2
47 -16z"/>
<path d="M4416 1465 c-89 -31 -138 -114 -138 -230 1 -121 51 -198 147 -224 78
-21 146 -7 201 41 31 28 70 86 62 93 -2 1 -22 5 -45 8 -39 5 -45 3 -60 -23
-51 -88 -183 -56 -199 48 l-7 42 162 0 161 0 0 28 c0 16 -7 53 -16 82 -35 119
-151 177 -268 135z m130 -83 c25 -19 44 -53 44 -76 0 -14 -16 -16 -106 -16
l-106 0 6 28 c4 15 20 39 37 55 35 32 92 36 125 9z"/>
<path d="M4960 1458 c-18 -13 -41 -39 -51 -58 l-19 -35 0 53 0 52 -50 0 -50 0
0 -230 0 -230 55 0 55 0 0 130 c0 90 4 141 14 165 15 35 59 65 96 65 18 0 20
6 20 55 0 64 -14 71 -70 33z"/>
<path d="M5282 1463 c-18 -8 -44 -34 -57 -57 l-25 -41 0 53 0 52 -50 0 -50 0
0 -230 0 -230 54 0 55 0 3 161 3 161 33 29 c40 36 80 38 110 6 21 -22 22 -33
22 -190 l0 -167 50 0 50 0 0 185 c0 215 -6 235 -73 266 -51 23 -82 23 -125 2z"/>
<path d="M5677 1466 c-20 -8 -44 -20 -53 -27 -43 -35 -57 -116 -29 -169 19
-37 56 -56 145 -75 90 -19 110 -30 110 -60 0 -34 -36 -55 -93 -55 -40 0 -54 5
-77 29 -28 27 -32 28 -75 19 -25 -5 -45 -14 -45 -18 0 -5 14 -25 31 -45 39
-44 119 -70 191 -62 71 9 134 40 152 76 23 44 21 112 -5 145 -25 32 -48 42
-144 62 -80 17 -115 36 -115 64 0 50 112 70 153 27 19 -21 27 -22 65 -15 23 5
42 14 42 20 0 5 -15 25 -33 43 -52 52 -141 69 -220 41z"/>
<path d="M936 1386 c2 -71 20 -81 149 -81 132 0 155 13 155 86 0 48 -1 49 -22
38 -34 -18 -176 -22 -233 -7 l-50 14 1 -50z"/>
<path d="M2226 1040 c-34 -11 -46 -26 -46 -60 0 -22 -7 -28 -42 -37 -25 -7
-79 -9 -129 -6 -151 10 -209 -8 -209 -66 0 -26 -5 -29 -74 -49 -41 -12 -81
-22 -90 -22 -14 0 -16 -30 -16 -273 l0 -273 305 -123 306 -124 372 120 372
119 0 264 0 264 -80 32 c-69 28 -80 35 -83 58 -4 34 -27 43 -129 52 -104 10
-187 43 -191 77 -2 14 -10 31 -19 39 -19 15 -204 22 -247 8z"/>
</g>
</svg>
