<?xml version="1.0" standalone="no"?>
<!DOCTYPE svg PUBLIC "-//W3C//DTD SVG 20010904//EN"
 "http://www.w3.org/TR/2001/REC-SVG-20010904/DTD/svg10.dtd">
<svg version="1.0" xmlns="http://www.w3.org/2000/svg"
 width="2560.000000pt" height="1024.000000pt" viewBox="0 0 2560.000000 1024.000000"
 preserveAspectRatio="xMidYMid meet">

<g transform="translate(0.000000,1024.000000) scale(0.100000,-0.100000)"
fill="#000000" stroke="none">
<path d="M4463 8599 c-161 -11 -379 -43 -497 -74 -389 -101 -568 -282 -661
-669 -54 -224 -57 -268 -65 -1051 -7 -779 -10 -815 -62 -990 -103 -348 -350
-475 -929 -475 l-169 0 0 -270 0 -270 173 0 c579 0 828 -134 928 -496 49 -181
50 -198 59 -974 5 -461 12 -765 19 -815 55 -380 150 -596 325 -737 214 -172
628 -258 1254 -258 l212 0 0 269 0 268 -262 6 c-328 6 -455 26 -593 94 -126
61 -196 187 -236 423 -7 40 -14 352 -18 815 -9 807 -11 842 -66 1053 -80 302
-252 478 -575 586 l-102 34 89 27 c181 55 343 155 436 270 94 117 155 279 193
515 14 88 18 227 24 855 6 601 11 766 23 832 55 295 139 397 380 458 124 31
280 45 515 45 l192 0 0 270 0 270 -232 -1 c-128 -1 -288 -6 -355 -10z"/>
<path d="M20560 8343 l0 -270 258 -6 c532 -11 710 -88 790 -343 53 -168 54
-188 62 -989 6 -629 10 -767 24 -855 51 -316 143 -501 313 -629 83 -62 202
-122 303 -151 41 -12 82 -24 90 -26 8 -3 -33 -21 -90 -40 -322 -108 -496 -285
-575 -586 -55 -211 -57 -246 -65 -1053 -7 -632 -10 -763 -24 -835 -51 -265
-127 -371 -313 -435 -121 -42 -239 -57 -515 -62 l-258 -6 0 -270 0 -270 298 6
c315 6 424 15 617 49 504 87 716 270 821 705 53 221 56 266 64 1048 6 619 10
744 24 825 46 259 127 413 263 503 162 106 355 147 706 147 l177 0 0 269 0
268 -242 6 c-184 5 -266 11 -338 26 -356 73 -494 223 -567 616 -12 64 -17 231
-23 815 -5 451 -12 766 -19 815 -31 220 -71 366 -139 505 -38 79 -60 109 -131
181 -72 71 -102 93 -181 131 -121 59 -227 92 -399 123 -205 37 -308 45 -633
52 l-298 6 0 -270z"/>
<path d="M7951 8459 c-390 -44 -712 -191 -960 -439 -451 -451 -680 -1276 -681
-2450 -1 -1205 236 -2043 701 -2486 281 -267 638 -404 1094 -421 774 -28 1333
309 1637 988 225 504 331 1196 315 2054 -11 524 -52 895 -142 1261 -215 876
-680 1367 -1398 1479 -123 19 -449 27 -566 14z m484 -638 c530 -138 770 -662
825 -1806 25 -514 2 -1133 -56 -1520 -54 -361 -144 -639 -271 -833 -49 -75
-173 -200 -244 -245 -223 -142 -551 -176 -824 -86 -424 141 -648 578 -730
1419 -35 363 -44 859 -25 1265 53 1098 276 1624 755 1784 50 16 119 34 155 40
102 16 321 6 415 -18z"/>
<path d="M12571 8459 c-390 -44 -712 -191 -960 -439 -451 -451 -680 -1276
-681 -2450 -1 -1205 236 -2043 701 -2486 281 -267 638 -404 1094 -421 774 -28
1333 309 1637 988 225 504 331 1196 315 2054 -11 524 -52 895 -142 1261 -215
876 -680 1367 -1398 1479 -123 19 -449 27 -566 14z m484 -638 c530 -138 770
-662 825 -1806 25 -514 2 -1133 -56 -1520 -54 -361 -144 -639 -271 -833 -49
-75 -173 -200 -244 -245 -223 -142 -551 -176 -824 -86 -424 141 -648 578 -730
1419 -35 363 -44 859 -25 1265 53 1098 276 1624 755 1784 50 16 119 34 155 40
102 16 321 6 415 -18z"/>
<path d="M15850 5570 l0 -2800 380 0 380 0 0 1124 0 1124 593 5 c611 5 662 8
893 52 186 35 338 86 499 165 475 234 733 643 786 1247 14 160 7 409 -16 558
-123 801 -666 1243 -1615 1315 -77 6 -515 10 -1017 10 l-883 0 0 -2800z m1827
2169 c611 -68 949 -475 920 -1109 -14 -309 -108 -535 -294 -711 -160 -151
-365 -239 -628 -269 -49 -5 -309 -10 -577 -10 l-488 0 0 1055 0 1055 485 0
c279 0 527 -5 582 -11z"/>
</g>
</svg>
